<svg width="1360" height="45" viewBox="0 0 1360 45" fill="none" xmlns="http://www.w3.org/2000/svg">
<path fill-rule="evenodd" clip-rule="evenodd" d="M18.1912 40.5C28.1323 40.5 36.1912 32.4411 36.1912 22.5C36.1912 12.5589 28.1323 4.5 18.1912 4.5C8.25003 4.5 0.191162 12.5589 0.191162 22.5C0.191162 32.4411 8.25003 40.5 18.1912 40.5ZM23.8066 12.8852C24.0799 11.9142 23.1377 11.3401 22.2772 11.9532L10.265 20.5106C9.33177 21.1755 9.47856 22.5 10.4855 22.5H13.6486V22.4755H19.8134L14.7903 24.2479L12.5758 32.1149C12.3025 33.0858 13.2446 33.6599 14.1052 33.0468L26.1174 24.4894C27.0506 23.8246 26.9037 22.5 25.8969 22.5H21.1001L23.8066 12.8852Z" fill="black"/>
<path d="M58.009 33.5V10.9052H62.6843V19.5201H71.5137V10.9052H76.2044V33.5H71.5137V23.4136H62.6843V33.5H58.009ZM87.8696 30.4189C89.1471 30.4189 90.1281 29.9641 90.8128 29.0546C91.4975 28.1451 91.8398 26.8524 91.8398 25.1764C91.8398 23.5005 91.4975 22.2128 90.8128 21.3135C90.1281 20.404 89.1471 19.9493 87.8696 19.9493C86.5922 19.9493 85.6061 20.404 84.9112 21.3135C84.2265 22.2128 83.8841 23.5005 83.8841 25.1764C83.8841 26.8524 84.2265 28.1451 84.9112 29.0546C85.6061 29.9641 86.5922 30.4189 87.8696 30.4189ZM96.4232 25.1764C96.4232 27.629 95.718 29.7291 94.3078 31.4766C92.8975 33.2139 90.7566 34.0825 87.885 34.0825C85.0134 34.0825 82.8724 33.2139 81.4622 31.4766C80.0519 29.7291 79.3468 27.629 79.3468 25.1764C79.3468 22.7647 80.0519 20.6748 81.4622 18.9069C82.8724 17.139 85.0134 16.255 87.885 16.255C90.7566 16.255 92.8975 17.139 94.3078 18.9069C95.718 20.6748 96.4232 22.7647 96.4232 25.1764ZM102.969 28.1655C103.061 28.9422 103.26 29.4941 103.566 29.8211C104.108 30.4036 105.11 30.6948 106.571 30.6948C107.429 30.6948 108.109 30.5671 108.61 30.3116C109.121 30.0561 109.376 29.6729 109.376 29.1619C109.376 28.6714 109.172 28.2984 108.763 28.0429C108.354 27.7874 106.837 27.348 104.21 26.7246C102.32 26.2545 100.986 25.6669 100.209 24.9618C99.4327 24.2669 99.0444 23.2654 99.0444 21.9573C99.0444 20.4142 99.6473 19.0908 100.853 17.9872C102.069 16.8733 103.776 16.3163 105.973 16.3163C108.058 16.3163 109.754 16.7353 111.062 17.5733C112.381 18.401 113.137 19.8369 113.331 21.8807H108.962C108.901 21.3186 108.742 20.8741 108.487 20.5471C108.007 19.9544 107.189 19.658 106.034 19.658C105.084 19.658 104.404 19.8062 103.996 20.1026C103.597 20.3989 103.398 20.7464 103.398 21.1449C103.398 21.6457 103.612 22.0084 104.042 22.2333C104.471 22.4683 105.988 22.872 108.594 23.4442C110.332 23.853 111.635 24.4713 112.503 25.299C113.362 26.137 113.791 27.1845 113.791 28.4415C113.791 30.097 113.173 31.451 111.936 32.5036C110.71 33.546 108.809 34.0672 106.234 34.0672C103.607 34.0672 101.666 33.5153 100.409 32.4116C99.1619 31.2977 98.5386 29.8824 98.5386 28.1655H102.969ZM115.324 20.0566V16.9448H117.654V12.2848H121.976V16.9448H124.69V20.0566H121.976V28.886C121.976 29.5707 122.063 29.9999 122.237 30.1736C122.411 30.3371 122.942 30.4189 123.831 30.4189C123.964 30.4189 124.102 30.4189 124.245 30.4189C124.398 30.4087 124.547 30.3985 124.69 30.3882V33.6533L122.62 33.7299C120.556 33.8015 119.146 33.4438 118.389 32.6569C117.899 32.1562 117.654 31.3846 117.654 30.3422V20.0566H115.324ZM153.293 14.9061H141.337V19.704H152.312V23.6282H141.337V29.4378H153.845V33.5H136.723V10.9052H153.293V14.9061ZM166.384 25.3757C166.108 25.5494 165.827 25.6925 165.541 25.8049C165.265 25.9071 164.882 26.0042 164.391 26.0961L163.41 26.2801C162.491 26.4436 161.832 26.6429 161.433 26.8779C160.759 27.2765 160.421 27.8947 160.421 28.7327C160.421 29.4787 160.626 30.0203 161.034 30.3576C161.453 30.6846 161.959 30.8481 162.552 30.8481C163.492 30.8481 164.356 30.5722 165.143 30.0203C165.94 29.4685 166.354 28.4619 166.384 27.0006V25.3757ZM163.732 23.3369C164.54 23.2348 165.117 23.107 165.464 22.9537C166.088 22.688 166.4 22.2741 166.4 21.7121C166.4 21.0274 166.159 20.5573 165.679 20.3018C165.209 20.0361 164.514 19.9033 163.594 19.9033C162.562 19.9033 161.832 20.1588 161.402 20.6697C161.096 21.0478 160.891 21.5588 160.789 22.2026H156.574C156.666 20.7413 157.074 19.5405 157.8 18.6003C158.955 17.1287 160.937 16.393 163.748 16.393C165.577 16.393 167.202 16.7557 168.622 17.4813C170.043 18.2069 170.753 19.5763 170.753 21.5895V29.2539C170.753 29.7853 170.763 30.4291 170.784 31.1853C170.814 31.7576 170.901 32.1459 171.044 32.3503C171.187 32.5547 171.402 32.7233 171.688 32.8562V33.5H166.936C166.803 33.1628 166.711 32.846 166.66 32.5496C166.609 32.2533 166.568 31.916 166.538 31.5379C165.935 32.1919 165.24 32.7489 164.453 33.2088C163.513 33.7504 162.45 34.0212 161.264 34.0212C159.752 34.0212 158.5 33.592 157.509 32.7336C156.528 31.8649 156.037 30.6386 156.037 29.0546C156.037 27.0006 156.829 25.5136 158.413 24.5939C159.282 24.0932 160.559 23.7355 162.245 23.5209L163.732 23.3369ZM178.05 28.1655C178.141 28.9422 178.341 29.4941 178.647 29.8211C179.189 30.4036 180.19 30.6948 181.652 30.6948C182.51 30.6948 183.19 30.5671 183.691 30.3116C184.201 30.0561 184.457 29.6729 184.457 29.1619C184.457 28.6714 184.253 28.2984 183.844 28.0429C183.435 27.7874 181.917 27.348 179.291 26.7246C177.401 26.2545 176.067 25.6669 175.29 24.9618C174.514 24.2669 174.125 23.2654 174.125 21.9573C174.125 20.4142 174.728 19.0908 175.934 17.9872C177.15 16.8733 178.857 16.3163 181.054 16.3163C183.139 16.3163 184.835 16.7353 186.143 17.5733C187.461 18.401 188.218 19.8369 188.412 21.8807H184.043C183.982 21.3186 183.823 20.8741 183.568 20.5471C183.088 19.9544 182.27 19.658 181.115 19.658C180.165 19.658 179.485 19.8062 179.077 20.1026C178.678 20.3989 178.479 20.7464 178.479 21.1449C178.479 21.6457 178.693 22.0084 179.123 22.2333C179.552 22.4683 181.069 22.872 183.675 23.4442C185.412 23.853 186.715 24.4713 187.584 25.299C188.442 26.137 188.872 27.1845 188.872 28.4415C188.872 30.097 188.253 31.451 187.017 32.5036C185.791 33.546 183.89 34.0672 181.315 34.0672C178.688 34.0672 176.747 33.5153 175.49 32.4116C174.243 31.2977 173.619 29.8824 173.619 28.1655H178.05ZM198.713 19.9493C197.701 19.9493 196.914 20.2661 196.352 20.8997C195.8 21.5332 195.453 22.3917 195.31 23.4749H202.101C202.029 22.3201 201.676 21.4464 201.043 20.8537C200.419 20.2507 199.643 19.9493 198.713 19.9493ZM198.713 16.347C200.103 16.347 201.355 16.6076 202.468 17.1287C203.582 17.6499 204.502 18.4726 205.228 19.5967C205.882 20.588 206.306 21.7376 206.5 23.0457C206.612 23.8121 206.658 24.9158 206.638 26.3567H195.203C195.264 28.0327 195.79 29.2079 196.781 29.8824C197.384 30.3014 198.11 30.5109 198.958 30.5109C199.857 30.5109 200.588 30.2554 201.15 29.7444C201.457 29.4685 201.728 29.0853 201.963 28.5948H206.423C206.311 29.586 205.795 30.5926 204.875 31.6145C203.444 33.2394 201.441 34.0518 198.866 34.0518C196.741 34.0518 194.865 33.3671 193.24 31.9978C191.616 30.6284 190.803 28.4006 190.803 25.3144C190.803 22.4223 191.534 20.2047 192.995 18.6616C194.467 17.1185 196.373 16.347 198.713 16.347Z" fill="black"/>
<path d="M472.697 24.0304L469.745 15.4385L466.607 24.0304H472.697ZM468.368 12.5525H471.347L478.403 32H475.517L473.544 26.175H465.853L463.748 32H461.047L468.368 12.5525ZM480.296 12.4863H482.613V19.5425C483.134 18.8629 483.756 18.3466 484.479 17.9936C485.203 17.6317 485.989 17.4508 486.836 17.4508C488.601 17.4508 490.031 18.0598 491.125 19.2777C492.228 20.4868 492.78 22.2741 492.78 24.6393C492.78 26.8811 492.237 28.7433 491.152 30.226C490.066 31.7088 488.561 32.4501 486.637 32.4501C485.561 32.4501 484.652 32.1898 483.91 31.669C483.469 31.3601 482.997 30.8659 482.494 30.1863V32H480.296V12.4863ZM486.492 30.3452C487.78 30.3452 488.742 29.8333 489.378 28.8095C490.022 27.7857 490.344 26.4354 490.344 24.7585C490.344 23.2669 490.022 22.0313 489.378 21.0517C488.742 20.072 487.802 19.5822 486.558 19.5822C485.472 19.5822 484.519 19.9838 483.698 20.7869C482.886 21.5901 482.48 22.9139 482.48 24.7585C482.48 26.0912 482.648 27.1723 482.984 28.0019C483.61 29.5641 484.78 30.3452 486.492 30.3452ZM501.2 30.4643C502.78 30.4643 503.861 29.8686 504.443 28.6771C505.035 27.4768 505.33 26.1441 505.33 24.6791C505.33 23.3552 505.118 22.2785 504.695 21.4488C504.024 20.1426 502.868 19.4895 501.226 19.4895C499.77 19.4895 498.711 20.0456 498.049 21.1576C497.387 22.2696 497.056 23.6111 497.056 25.1821C497.056 26.6913 497.387 27.949 498.049 28.9551C498.711 29.9613 499.761 30.4643 501.2 30.4643ZM501.292 17.4111C503.119 17.4111 504.664 18.0201 505.926 19.238C507.188 20.456 507.819 22.2476 507.819 24.6129C507.819 26.8987 507.263 28.7874 506.151 30.279C505.039 31.7705 503.314 32.5163 500.975 32.5163C499.024 32.5163 497.475 31.8588 496.328 30.5438C495.181 29.2199 494.607 27.4459 494.607 25.2218C494.607 22.8389 495.212 20.9414 496.421 19.5293C497.63 18.1171 499.254 17.4111 501.292 17.4111ZM513.048 17.8215V27.2341C513.048 27.9578 513.163 28.5491 513.393 29.0081C513.816 29.8553 514.606 30.279 515.762 30.279C517.422 30.279 518.551 29.5376 519.151 28.0549C519.478 27.2606 519.641 26.1706 519.641 24.785V17.8215H522.024V32H519.774L519.8 29.9083C519.491 30.4467 519.107 30.9012 518.648 31.2719C517.739 32.0132 516.636 32.3839 515.339 32.3839C513.318 32.3839 511.941 31.7088 511.208 30.3584C510.811 29.6347 510.612 28.6683 510.612 27.4592V17.8215H513.048ZM526.234 13.8631H528.643V17.8215H530.907V19.7675H528.643V29.0213C528.643 29.5156 528.811 29.8465 529.146 30.0142C529.332 30.1113 529.641 30.1598 530.073 30.1598C530.188 30.1598 530.311 30.1598 530.444 30.1598C530.576 30.151 530.731 30.1378 530.907 30.1201V32C530.634 32.0794 530.347 32.1368 530.047 32.1721C529.755 32.2074 529.438 32.2251 529.094 32.2251C527.981 32.2251 527.227 31.9426 526.83 31.3778C526.433 30.8041 526.234 30.0628 526.234 29.1537V19.7675H524.314V17.8215H526.234V13.8631Z" fill="black"/>
<path d="M602.065 25.7249C602.126 26.8281 602.387 27.7239 602.846 28.4123C603.719 29.7009 605.259 30.3452 607.466 30.3452C608.454 30.3452 609.355 30.204 610.167 29.9215C611.737 29.3743 612.523 28.3947 612.523 26.9826C612.523 25.9235 612.192 25.1689 611.53 24.7188C610.859 24.2775 609.809 23.8936 608.379 23.567L605.745 22.9713C604.024 22.583 602.806 22.1549 602.091 21.6871C600.855 20.8752 600.238 19.6616 600.238 18.0465C600.238 16.299 600.842 14.8649 602.051 13.744C603.26 12.6231 604.973 12.0627 607.188 12.0627C609.227 12.0627 610.956 12.5569 612.377 13.5454C613.807 14.5251 614.522 16.096 614.522 18.2583H612.046C611.914 17.2169 611.632 16.4182 611.199 15.8622C610.396 14.8472 609.032 14.3397 607.108 14.3397C605.555 14.3397 604.439 14.6663 603.759 15.3194C603.079 15.9725 602.74 16.7315 602.74 17.5964C602.74 18.5496 603.137 19.2468 603.931 19.6881C604.452 19.9705 605.63 20.3236 607.466 20.7472L610.193 21.3694C611.508 21.6695 612.523 22.0799 613.238 22.6006C614.473 23.5097 615.091 24.8291 615.091 26.5589C615.091 28.7124 614.306 30.2525 612.735 31.1792C611.173 32.1059 609.355 32.5693 607.281 32.5693C604.862 32.5693 602.969 31.9515 601.601 30.7159C600.233 29.4891 599.562 27.8254 599.589 25.7249H602.065ZM624.014 17.5037C625.02 17.5037 625.995 17.742 626.94 18.2186C627.884 18.6864 628.603 19.2954 629.098 20.0456C629.574 20.7604 629.892 21.5945 630.051 22.5476C630.192 23.2008 630.263 24.2422 630.263 25.672H619.87C619.915 27.1105 620.254 28.2667 620.89 29.1405C621.525 30.0054 622.509 30.4378 623.842 30.4378C625.086 30.4378 626.079 30.0275 626.821 29.2067C627.244 28.7301 627.544 28.1785 627.721 27.5518H630.064C630.002 28.0726 629.795 28.6551 629.442 29.2993C629.098 29.9348 628.709 30.4555 628.277 30.8615C627.553 31.5675 626.657 32.0441 625.589 32.2912C625.016 32.4325 624.367 32.5031 623.643 32.5031C621.878 32.5031 620.382 31.8632 619.156 30.5835C617.929 29.2949 617.315 27.4945 617.315 25.1821C617.315 22.9051 617.933 21.0561 619.169 19.6352C620.404 18.2142 622.019 17.5037 624.014 17.5037ZM627.814 23.7788C627.716 22.7462 627.491 21.921 627.138 21.3032C626.485 20.1559 625.395 19.5822 623.868 19.5822C622.774 19.5822 621.856 19.9794 621.115 20.7737C620.373 21.5592 619.981 22.5609 619.937 23.7788H627.814ZM633.268 17.8215H635.532V20.2706C635.717 19.794 636.172 19.2159 636.895 18.5364C637.619 17.848 638.453 17.5037 639.397 17.5037C639.441 17.5037 639.516 17.5082 639.622 17.517C639.728 17.5258 639.909 17.5435 640.165 17.5699V20.0853C640.024 20.0588 639.892 20.0411 639.768 20.0323C639.653 20.0235 639.525 20.0191 639.384 20.0191C638.184 20.0191 637.261 20.4074 636.617 21.1841C635.973 21.9519 635.651 22.8389 635.651 23.845V32H633.268V17.8215ZM643.395 17.8215L647.182 29.3655L651.14 17.8215H653.748L648.4 32H645.858L640.629 17.8215H643.395ZM655.787 17.8877H658.209V32H655.787V17.8877ZM655.787 12.5525H658.209V15.2532H655.787V12.5525ZM667.291 17.4111C668.888 17.4111 670.186 17.7994 671.183 18.5761C672.189 19.3527 672.794 20.6898 672.997 22.5874H670.68C670.539 21.7136 670.217 20.9899 669.714 20.4162C669.211 19.8337 668.403 19.5425 667.291 19.5425C665.773 19.5425 664.687 20.2839 664.034 21.7666C663.611 22.7286 663.399 23.9156 663.399 25.3278C663.399 26.7487 663.699 27.9446 664.299 28.9154C664.899 29.8862 665.844 30.3717 667.132 30.3717C668.121 30.3717 668.902 30.0716 669.475 29.4714C670.058 28.8625 670.459 28.0328 670.68 26.9826H672.997C672.732 28.8625 672.07 30.2393 671.011 31.113C669.952 31.9779 668.597 32.4104 666.947 32.4104C665.093 32.4104 663.615 31.7352 662.512 30.3849C661.409 29.0257 660.857 27.3312 660.857 25.3013C660.857 22.8124 661.462 20.8752 662.671 19.4895C663.88 18.1039 665.42 17.4111 667.291 17.4111ZM681.284 17.5037C682.29 17.5037 683.266 17.742 684.21 18.2186C685.154 18.6864 685.874 19.2954 686.368 20.0456C686.844 20.7604 687.162 21.5945 687.321 22.5476C687.462 23.2008 687.533 24.2422 687.533 25.672H677.141C677.185 27.1105 677.524 28.2667 678.16 29.1405C678.795 30.0054 679.779 30.4378 681.112 30.4378C682.357 30.4378 683.349 30.0275 684.091 29.2067C684.514 28.7301 684.814 28.1785 684.991 27.5518H687.334C687.272 28.0726 687.065 28.6551 686.712 29.2993C686.368 29.9348 685.979 30.4555 685.547 30.8615C684.823 31.5675 683.928 32.0441 682.86 32.2912C682.286 32.4325 681.637 32.5031 680.914 32.5031C679.148 32.5031 677.652 31.8632 676.426 30.5835C675.199 29.2949 674.585 27.4945 674.585 25.1821C674.585 22.9051 675.203 21.0561 676.439 19.6352C677.674 18.2142 679.29 17.5037 681.284 17.5037ZM685.084 23.7788C684.987 22.7462 684.762 21.921 684.409 21.3032C683.755 20.1559 682.665 19.5822 681.139 19.5822C680.044 19.5822 679.126 19.9794 678.385 20.7737C677.644 21.5592 677.251 22.5609 677.207 23.7788H685.084ZM691.888 27.5518C691.959 28.3462 692.157 28.9551 692.484 29.3788C693.084 30.1466 694.126 30.5305 695.608 30.5305C696.491 30.5305 697.268 30.3408 697.938 29.9613C698.609 29.5729 698.944 28.9772 698.944 28.174C698.944 27.5651 698.675 27.1017 698.137 26.784C697.793 26.5898 697.113 26.3648 696.098 26.1088L694.205 25.6322C692.996 25.3322 692.105 24.9968 691.531 24.6261C690.507 23.9818 689.995 23.0904 689.995 21.9519C689.995 20.6104 690.476 19.5248 691.438 18.6952C692.409 17.8656 693.711 17.4508 695.344 17.4508C697.479 17.4508 699.019 18.0774 699.964 19.3307C700.555 20.125 700.842 20.9811 700.824 21.899H698.574C698.53 21.3606 698.34 20.8708 698.005 20.4295C697.457 19.8028 696.509 19.4895 695.158 19.4895C694.258 19.4895 693.574 19.6616 693.106 20.0058C692.647 20.35 692.418 20.8046 692.418 21.3694C692.418 21.9872 692.722 22.4815 693.331 22.8521C693.684 23.0728 694.205 23.2669 694.893 23.4346L696.469 23.8186C698.181 24.2334 699.328 24.6349 699.911 25.0233C700.838 25.6322 701.301 26.5898 701.301 27.896C701.301 29.1581 700.82 30.2481 699.858 31.166C698.905 32.0838 697.449 32.5428 695.489 32.5428C693.38 32.5428 691.884 32.0662 691.001 31.113C690.128 30.151 689.66 28.964 689.598 27.5518H691.888Z" fill="black"/>
<path d="M771.309 12.5525H780.06C781.79 12.5525 783.184 13.0423 784.244 14.022C785.303 14.9928 785.832 16.3608 785.832 18.126C785.832 19.644 785.36 20.9678 784.416 22.0975C783.471 23.2184 782.019 23.7788 780.06 23.7788H773.944V32H771.309V12.5525ZM783.171 18.1392C783.171 16.7094 782.642 15.7386 781.583 15.2267C781 14.9531 780.201 14.8163 779.186 14.8163H773.944V21.5548H779.186C780.369 21.5548 781.327 21.3032 782.059 20.8002C782.8 20.2971 783.171 19.4101 783.171 18.1392ZM788.89 17.8215H791.154V20.2706C791.339 19.794 791.794 19.2159 792.518 18.5364C793.241 17.848 794.075 17.5037 795.02 17.5037C795.064 17.5037 795.139 17.5082 795.245 17.517C795.351 17.5258 795.532 17.5435 795.788 17.5699V20.0853C795.646 20.0588 795.514 20.0411 795.39 20.0323C795.276 20.0235 795.148 20.0191 795.006 20.0191C793.806 20.0191 792.884 20.4074 792.24 21.1841C791.595 21.9519 791.273 22.8389 791.273 23.845V32H788.89V17.8215ZM797.853 17.8877H800.275V32H797.853V17.8877ZM797.853 12.5525H800.275V15.2532H797.853V12.5525ZM809.357 17.4111C810.955 17.4111 812.252 17.7994 813.249 18.5761C814.255 19.3527 814.86 20.6898 815.063 22.5874H812.746C812.605 21.7136 812.283 20.9899 811.78 20.4162C811.277 19.8337 810.469 19.5425 809.357 19.5425C807.839 19.5425 806.754 20.2839 806.1 21.7666C805.677 22.7286 805.465 23.9156 805.465 25.3278C805.465 26.7487 805.765 27.9446 806.365 28.9154C806.965 29.8862 807.91 30.3717 809.198 30.3717C810.187 30.3717 810.968 30.0716 811.541 29.4714C812.124 28.8625 812.526 28.0328 812.746 26.9826H815.063C814.798 28.8625 814.136 30.2393 813.077 31.113C812.018 31.9779 810.663 32.4104 809.013 32.4104C807.159 32.4104 805.681 31.7352 804.578 30.3849C803.475 29.0257 802.923 27.3312 802.923 25.3013C802.923 22.8124 803.528 20.8752 804.737 19.4895C805.946 18.1039 807.486 17.4111 809.357 17.4111ZM817.446 17.8877H819.869V32H817.446V17.8877ZM817.446 12.5525H819.869V15.2532H817.446V12.5525ZM823.483 17.8215H825.746V19.8337C826.417 19.0041 827.128 18.4084 827.878 18.0465C828.628 17.6847 829.462 17.5037 830.38 17.5037C832.392 17.5037 833.751 18.2054 834.457 19.6087C834.846 20.3765 835.04 21.4753 835.04 22.9051V32H832.617V23.064C832.617 22.199 832.489 21.5018 832.233 20.9723C831.81 20.0897 831.042 19.6484 829.93 19.6484C829.365 19.6484 828.902 19.7058 828.54 19.8205C827.887 20.0147 827.313 20.403 826.819 20.9855C826.422 21.4533 826.161 21.9387 826.038 22.4417C825.923 22.936 825.866 23.6465 825.866 24.5732V32H823.483V17.8215ZM843.579 17.5699C844.691 17.5699 845.662 17.8435 846.491 18.3907C846.941 18.6996 847.4 19.1497 847.868 19.7411V17.9539H850.066V30.8482C850.066 32.6487 849.801 34.0696 849.271 35.1111C848.283 37.0351 846.416 37.9971 843.672 37.9971C842.145 37.9971 840.861 37.6529 839.819 36.9645C838.778 36.2849 838.195 35.217 838.072 33.7607H840.494C840.609 34.3962 840.838 34.886 841.183 35.2302C841.721 35.7598 842.568 36.0245 843.724 36.0245C845.551 36.0245 846.747 35.3803 847.312 34.0917C847.648 33.3327 847.802 31.9779 847.775 30.0275C847.299 30.7512 846.725 31.2895 846.054 31.6426C845.384 31.9956 844.497 32.1721 843.394 32.1721C841.858 32.1721 840.512 31.6293 839.356 30.5438C838.208 29.4494 837.635 27.6445 837.635 25.1292C837.635 22.7551 838.213 20.9017 839.369 19.569C840.534 18.2363 841.937 17.5699 843.579 17.5699ZM847.868 24.8512C847.868 23.0948 847.506 21.7931 846.783 20.9458C846.059 20.0985 845.137 19.6749 844.016 19.6749C842.339 19.6749 841.191 20.4604 840.574 22.0313C840.247 22.8698 840.084 23.9686 840.084 25.3278C840.084 26.9252 840.406 28.1432 841.05 28.9816C841.703 29.8112 842.577 30.226 843.672 30.226C845.384 30.226 846.588 29.4538 847.286 27.9093C847.674 27.0355 847.868 26.0162 847.868 24.8512Z" fill="black"/>
<path d="M927.853 20.7737C928.965 20.7737 929.83 20.6192 930.448 20.3103C931.419 19.8249 931.904 18.9512 931.904 17.6891C931.904 16.4182 931.388 15.5621 930.355 15.1208C929.773 14.8737 928.908 14.7501 927.76 14.7501H923.061V20.7737H927.853ZM928.74 29.7494C930.355 29.7494 931.507 29.2817 932.195 28.3462C932.628 27.7548 932.844 27.0399 932.844 26.2015C932.844 24.7894 932.213 23.8274 930.951 23.3155C930.28 23.0419 929.393 22.9051 928.29 22.9051H923.061V29.7494H928.74ZM920.479 12.5525H928.833C931.11 12.5525 932.729 13.2321 933.691 14.5913C934.256 15.3944 934.538 16.3211 934.538 17.3714C934.538 18.5981 934.19 19.6043 933.493 20.3898C933.131 20.8046 932.61 21.1841 931.93 21.5283C932.928 21.9078 933.674 22.3358 934.168 22.8124C935.042 23.6597 935.478 24.8291 935.478 26.3206C935.478 27.5739 935.086 28.708 934.3 29.723C933.126 31.241 931.26 32 928.7 32H920.479V12.5525ZM938.378 12.5525H940.761V32H938.378V12.5525ZM949.975 30.4643C951.554 30.4643 952.636 29.8686 953.218 28.6771C953.809 27.4768 954.105 26.1441 954.105 24.6791C954.105 23.3552 953.893 22.2785 953.47 21.4488C952.799 20.1426 951.643 19.4895 950.001 19.4895C948.545 19.4895 947.486 20.0456 946.824 21.1576C946.162 22.2696 945.831 23.6111 945.831 25.1821C945.831 26.6913 946.162 27.949 946.824 28.9551C947.486 29.9613 948.536 30.4643 949.975 30.4643ZM950.067 17.4111C951.894 17.4111 953.439 18.0201 954.701 19.238C955.963 20.456 956.594 22.2476 956.594 24.6129C956.594 26.8987 956.038 28.7874 954.926 30.279C953.814 31.7705 952.088 32.5163 949.75 32.5163C947.799 32.5163 946.25 31.8588 945.103 30.5438C943.955 29.2199 943.382 27.4459 943.382 25.2218C943.382 22.8389 943.986 20.9414 945.196 19.5293C946.405 18.1171 948.029 17.4111 950.067 17.4111ZM964.444 17.5699C965.556 17.5699 966.527 17.8435 967.357 18.3907C967.807 18.6996 968.266 19.1497 968.734 19.7411V17.9539H970.931V30.8482C970.931 32.6487 970.667 34.0696 970.137 35.1111C969.149 37.0351 967.282 37.9971 964.537 37.9971C963.01 37.9971 961.726 37.6529 960.685 36.9645C959.643 36.2849 959.061 35.217 958.937 33.7607H961.36C961.475 34.3962 961.704 34.886 962.048 35.2302C962.587 35.7598 963.434 36.0245 964.59 36.0245C966.417 36.0245 967.613 35.3803 968.178 34.0917C968.513 33.3327 968.668 31.9779 968.641 30.0275C968.164 30.7512 967.591 31.2895 966.92 31.6426C966.249 31.9956 965.362 32.1721 964.259 32.1721C962.723 32.1721 961.377 31.6293 960.221 30.5438C959.074 29.4494 958.5 27.6445 958.5 25.1292C958.5 22.7551 959.078 20.9017 960.235 19.569C961.4 18.2363 962.803 17.5699 964.444 17.5699ZM968.734 24.8512C968.734 23.0948 968.372 21.7931 967.648 20.9458C966.924 20.0985 966.002 19.6749 964.881 19.6749C963.204 19.6749 962.057 20.4604 961.439 22.0313C961.113 22.8698 960.949 23.9686 960.949 25.3278C960.949 26.9252 961.272 28.1432 961.916 28.9816C962.569 29.8112 963.443 30.226 964.537 30.226C966.249 30.226 967.454 29.4538 968.151 27.9093C968.54 27.0355 968.734 26.0162 968.734 24.8512Z" fill="black"/>
<rect width="133" height="45" transform="translate(1226.13)" fill="black"/>
<path d="M1263.17 24.6931C1263.22 25.5382 1263.42 26.2244 1263.77 26.7517C1264.44 27.7388 1265.62 28.2323 1267.31 28.2323C1268.07 28.2323 1268.76 28.1242 1269.38 27.9078C1270.58 27.4887 1271.18 26.7382 1271.18 25.6565C1271.18 24.8452 1270.93 24.2671 1270.42 23.9223C1269.91 23.5843 1269.1 23.2902 1268.01 23.04L1265.99 22.5837C1264.67 22.2862 1263.74 21.9583 1263.19 21.6C1262.25 20.978 1261.77 20.0484 1261.77 18.8111C1261.77 17.4725 1262.24 16.3739 1263.16 15.5152C1264.09 14.6566 1265.4 14.2273 1267.1 14.2273C1268.66 14.2273 1269.98 14.6059 1271.07 15.3631C1272.17 16.1136 1272.71 17.317 1272.71 18.9734H1270.82C1270.72 18.1756 1270.5 17.5638 1270.17 17.1378C1269.55 16.3604 1268.51 15.9716 1267.04 15.9716C1265.85 15.9716 1264.99 16.2218 1264.47 16.7221C1263.95 17.2224 1263.69 17.8038 1263.69 18.4663C1263.69 19.1965 1263.99 19.7306 1264.6 20.0687C1265 20.285 1265.9 20.5554 1267.31 20.88L1269.4 21.3566C1270.41 21.5865 1271.18 21.9008 1271.73 22.2997C1272.68 22.9961 1273.15 24.0068 1273.15 25.332C1273.15 26.9816 1272.55 28.1614 1271.35 28.8712C1270.15 29.5811 1268.76 29.9361 1267.17 29.9361C1265.32 29.9361 1263.87 29.4628 1262.82 28.5163C1261.77 27.5765 1261.26 26.3021 1261.28 24.6931H1263.17ZM1275.46 18.6895H1277.32V29.5H1275.46V18.6895ZM1275.46 14.6025H1277.32V16.6713H1275.46V14.6025ZM1283.92 18.4461C1284.77 18.4461 1285.52 18.6556 1286.15 19.0748C1286.5 19.3114 1286.85 19.6562 1287.21 20.1092V18.7402H1288.89V28.6177C1288.89 29.9969 1288.69 31.0854 1288.28 31.8832C1287.52 33.357 1286.09 34.094 1283.99 34.094C1282.82 34.094 1281.84 33.8303 1281.04 33.303C1280.24 32.7824 1279.8 31.9643 1279.7 30.8488H1281.56C1281.65 31.3356 1281.82 31.7108 1282.09 31.9745C1282.5 32.3801 1283.15 32.5829 1284.03 32.5829C1285.43 32.5829 1286.35 32.0894 1286.78 31.1023C1287.04 30.5209 1287.16 29.4831 1287.14 27.989C1286.77 28.5433 1286.33 28.9558 1285.82 29.2262C1285.3 29.4966 1284.62 29.6318 1283.78 29.6318C1282.6 29.6318 1281.57 29.216 1280.69 28.3845C1279.81 27.5461 1279.37 26.1635 1279.37 24.2367C1279.37 22.418 1279.81 20.9983 1280.7 19.9774C1281.59 18.9565 1282.66 18.4461 1283.92 18.4461ZM1287.21 24.0237C1287.21 22.6783 1286.93 21.6811 1286.38 21.0321C1285.82 20.383 1285.11 20.0585 1284.26 20.0585C1282.97 20.0585 1282.09 20.6602 1281.62 21.8637C1281.37 22.5059 1281.24 23.3477 1281.24 24.3888C1281.24 25.6125 1281.49 26.5455 1281.98 27.1878C1282.48 27.8233 1283.15 28.1411 1283.99 28.1411C1285.3 28.1411 1286.23 27.5495 1286.76 26.3664C1287.06 25.697 1287.21 24.9162 1287.21 24.0237ZM1291.65 18.6387H1293.38V20.1802C1293.9 19.5447 1294.44 19.0883 1295.02 18.8111C1295.59 18.534 1296.23 18.3954 1296.93 18.3954C1298.47 18.3954 1299.51 18.9328 1300.06 20.0078C1300.35 20.596 1300.5 21.4377 1300.5 22.533V29.5H1298.65V22.6547C1298.65 21.9921 1298.55 21.458 1298.35 21.0524C1298.03 20.3763 1297.44 20.0382 1296.59 20.0382C1296.15 20.0382 1295.8 20.0822 1295.52 20.1701C1295.02 20.3188 1294.58 20.6163 1294.2 21.0625C1293.9 21.4208 1293.7 21.7927 1293.61 22.178C1293.52 22.5566 1293.47 23.1009 1293.47 23.8108V29.5H1291.65V18.6387ZM1309.69 14.6025H1311.73V29.5H1309.69V14.6025ZM1314.77 18.6387H1316.5V20.1802C1317.02 19.5447 1317.56 19.0883 1318.14 18.8111C1318.71 18.534 1319.35 18.3954 1320.05 18.3954C1321.6 18.3954 1322.64 18.9328 1323.18 20.0078C1323.48 20.596 1323.62 21.4377 1323.62 22.533V29.5H1321.77V22.6547C1321.77 21.9921 1321.67 21.458 1321.47 21.0524C1321.15 20.3763 1320.56 20.0382 1319.71 20.0382C1319.28 20.0382 1318.92 20.0822 1318.64 20.1701C1318.14 20.3188 1317.7 20.6163 1317.33 21.0625C1317.02 21.4208 1316.82 21.7927 1316.73 22.178C1316.64 22.5566 1316.6 23.1009 1316.6 23.8108V29.5H1314.77V18.6387Z" fill="white"/>
</svg>
